<?xml version="1.0" ?><svg viewBox="0 0 32 32" xmlns="http://www.w3.org/2000/svg"><defs><style>.cls-1{fill:#d8e1ef;}.cls-2{fill:#0593ff;}</style></defs><title/><g id="Server"><path class="cls-1" d="M27,2H5A3,3,0,0,0,2,5V9a1,1,0,0,0,1,1H29a1,1,0,0,0,1-1V5A3,3,0,0,0,27,2Z"/><rect class="cls-1" height="8" rx="1" ry="1" width="28" x="2" y="12"/><path class="cls-1" d="M29,22H3a1,1,0,0,0-1,1v4a3,3,0,0,0,3,3H27a3,3,0,0,0,3-3V23A1,1,0,0,0,29,22Z"/><path class="cls-2" d="M21,17H7a1,1,0,0,1,0-2H21a1,1,0,0,1,0,2Z"/><path class="cls-2" d="M21,7H7A1,1,0,0,1,7,5H21a1,1,0,0,1,0,2Z"/><path class="cls-2" d="M21,27H7a1,1,0,0,1,0-2H21a1,1,0,0,1,0,2Z"/><circle class="cls-2" cx="25" cy="6" r="1"/><circle class="cls-2" cx="25" cy="16" r="1"/><circle class="cls-2" cx="25" cy="26" r="1"/></g></svg>